#!OML:ASF I:\golf\golf\golf 2\Subject 1\2002-09-07\Subject1.ASF
:FULLY-SPECIFIED
:DEGREES
334
root -0.609177 17.3219 -3.60158 79.7886 29.0837 20.648
lowerback 19.6288 5.17964 5.81608
upperback 13.1655 7.89263 12.1851
thorax 2.47192 3.79857 8.58326
lowerneck -10.9748 -12.1853 -1.35746
upperneck -12.529 -16.5465 4.19116
head -1.72672 -8.57691 1.1953
rclavicle -3.18055e-014 2.8625e-014
rhumerus 37.529 -2.31962 -23.5179
rradius 24.6923
rwrist -8.08395
rhand -22.1946 9.91573
rfingers 7.12502
rthumb 4.22086 -20.0222
lclavicle -3.18055e-014 2.8625e-014
lhumerus -25.3784 -23.4652 95.358
lradius 99.1053
lwrist 19.3855
lhand -12.1678 26.339
lfingers 7.12502
lthumb 13.8953 55.8547
rfemur -96.9421 -11.6007 11.5074
rtibia 39.0578
rfoot -4.39415 -12.5573
rtoes 16.8585
lfemur -49.9921 0.219494 -13.0909
ltibia 34.6864
lfoot 11.1409 -10.3233
ltoes -11.1261
335
root -0.601233 17.337 -3.61335 79.073 29.205 20.3154
lowerback 19.7635 5.16252 5.74171
upperback 13.1324 7.87586 12.0954
thorax 2.36929 3.79168 8.51002
lowerneck -11.3661 -12.1606 -1.15046
upperneck -12.2511 -16.5271 4.08849
head -1.60104 -8.56674 1.0953
rclavicle 2.22639e-014 2.22639e-014
rhumerus 36.5518 -1.0479 -24.2833
rradius 24.9856
rwrist -10.4991
rhand -20.3104 8.97208
rfingers 7.12502
rthumb 6.04011 -20.9218
lclavicle 2.22639e-014 2.22639e-014
lhumerus -25.3622 -23.471 95.2694
lradius 99.9151
lwrist 19.1396
lhand -12.547 26.957
lfingers 7.12502
lthumb 13.5299 56.4975
rfemur -96.2498 -11.2762 11.3838
rtibia 38.8863
rfoot -4.56098 -12.6715
rtoes 18.9424
lfemur -49.8149 0.448427 -13.3095
ltibia 34.6912
lfoot 10.7346 -10.3377
ltoes -12.0785
336
root -0.590903 17.3519 -3.62333 78.3695 29.4408 19.9892
lowerback 19.8167 5.12831 5.78524
upperback 13.098 7.84759 12.0351
thorax 2.32072 3.7843 8.41496
lowerneck -12.069 -12.1872 -0.779004
upperneck -11.7612 -16.6133 3.7608
head -1.39215 -8.61087 0.874149
rclavicle -1.90833e-014 0
rhumerus 35.5016 0.262173 -24.9943
rradius 25.2821
rwrist -12.9542
rhand -18.7673 8.10461
rfingers 7.12502
rthumb 7.52973 -21.7414
lclavicle -1.90833e-014 0
lhumerus -25.3799 -23.4209 95.1812
lradius 100.657
lwrist 19.074
lhand -12.6367 26.7778
lfingers 7.12502
lthumb 13.4434 56.3239
rfemur -95.5792 -10.9684 11.5297
rtibia 38.7058
rfoot -4.63086 -12.7143
rtoes 19.0661
lfemur -49.6506 0.558014 -13.3137
ltibia 34.6606
lfoot 10.4218 -10.1646
ltoes -12.8139
337
root -0.577339 17.3718 -3.63601 77.6404 29.6437 19.7261
lowerback 19.9115 5.04865 5.87054
upperback 13.017 7.77628 11.9441
thorax 2.21331 3.75955 8.26252
lowerneck -12.4745 -12.1893 -0.644829
upperneck -11.4265 -16.625 3.65609
head -1.243 -8.61188 0.780815
rclavicle -4.45278e-014 -5.24792e-014
rhumerus 34.5353 1.22908 -26.2318
rradius 25.35
rwrist -14.7941
rhand -17.0691 7.51401
rfingers 7.12502
rthumb 9.16871 -22.2667
lclavicle -4.45278e-014 -5.24792e-014
lhumerus -25.4838 -23.3196 95.1143
lradius 101.298
lwrist 18.9575
lhand -12.5376 26.5025
lfingers 7.12502
lthumb 13.5389 56.0423
rfemur -94.8475 -10.7593 11.6958
rtibia 38.5323
rfoot -4.7115 -12.6226
rtoes 19.2636
lfemur -49.4383 0.539303 -13.3322
ltibia 34.59
lfoot 10.3167 -9.76618
ltoes -12.0533
338
root -0.564381 17.398 -3.64454 76.6796 29.7307 19.3265
lowerback 20.1909 5.11445 5.75989
upperback 12.9682 7.87892 11.921
thorax 1.99324 3.80656 8.24576
lowerneck -12.4715 -12.2405 -0.672922
upperneck -11.3742 -16.6773 3.74629
head -1.21565 -8.63475 0.805746
rclavicle 2.22639e-014 1.27222e-014
rhumerus 32.9565 2.7365 -26.3182
rradius 26.0724
rwrist -17.6849
rhand -15.2917 6.81752
rfingers 7.12502
rthumb 10.8834 -22.8804
lclavicle 2.22639e-014 1.27222e-014
lhumerus -25.4477 -23.3707 95.1649
lradius 101.722
lwrist 18.8421
lhand -12.4255 26.1585
lfingers 7.12502
lthumb 13.6469 55.6911
rfemur -93.913 -10.3719 11.6603
rtibia 38.3609
rfoot -4.82326 -12.6136
rtoes 20.0306
lfemur -49.0117 0.66067 -13.4675
ltibia 34.4502
lfoot 10.2453 -9.38521
ltoes -10.6089
